<?xml version="1.0" encoding="UTF-8"?>
<svg xmlns="http://www.w3.org/2000/svg" version="1.1" viewBox="0 0 2000 288">
  <!-- Generator: Adobe Illustrator 29.1.0, SVG Export Plug-In . SVG Version: 2.1.0 Build 142)  -->
  <defs>
    <style>
      .st0 {
        fill: #424242;
      }

      .st1 {
        fill: #c90000;
      }
    </style>
  </defs>
  <g id="AGENCI">
    <g>
      <path class="st1" d="M374.8,176.9c0-20-1.2-22.8-11.1-25.5-2-.5-6.2-.7-8.4-.7s-2-.5-2-1.5c0-1.5,1.2-2,4-2,11.1,0,26.7.7,28,.7s16.8-.7,24.2-.7,4,.5,4,2-1,1.5-2,1.5c-1.7,0-3.2.2-6.2.7-6.7,1.2-8.7,5.4-9.2,14.1-.5,7.9-.5,15.3-.5,25.7v27.7c0,11.1-.2,11.6-3.2,13.4-15.8,8.4-38.1,11.1-52.4,11.1s-53.9-2.5-81.4-26.5c-15.1-13.1-29.4-39.6-29.4-70.5s19.3-67.5,41.3-81.4c22.3-13.8,46.7-15.6,65.8-15.6s33.1,3.2,37.8,4.2c5.2,1.2,13.9,2.2,20,2.5,2.5.2,3,1.2,3,2.2,0,3.5-1.7,10.4-1.7,35.1s-.5,5.2-2.2,5.2-1.5-1.5-1.7-3.7c-.2-3.5-1.5-10.4-5.2-16.3-6.2-9.4-26.2-20-58.1-20s-34.1,1.5-52.9,16.3c-14.3,11.4-24.5,33.9-24.5,62.8s17.6,60.1,26.2,68.5c19.5,19.1,42.1,26.5,64.8,26.5s21.8-1.5,28.2-5.2c3.2-1.7,4.9-4.5,4.9-8.7v-42Z"/>
      <path class="st1" d="M470.6,124.7c0-38.6,0-45.5-.5-53.4-.5-8.4-2.5-12.4-10.6-14.1-2-.5-6.2-.7-8.4-.7s-2-.5-2-1.5c0-1.5,1.2-2,4-2,5.7,0,12.4,0,17.8.2l10.1.5c1.7,0,51,0,56.6-.2,4.7-.2,8.7-.7,10.6-1.2,1.2-.2,2.2-1.2,3.5-1.2s1,1,1,2.2-1.2,4.7-2,11.6c-.3,2.5-.7,13.4-1.2,16.3-.2,1.2-.7,2.7-1.7,2.7-1.5,0-2-1.2-2-3.2s-.2-5.9-1.5-8.9c-1.7-4-4.2-6.9-17.6-8.4-4.2-.5-31.2-.7-33.9-.7s-1.5.7-1.5,2.5v68.3c0,1.7.2,2.5,1.5,2.5,3.2,0,33.6,0,39.3-.5,5.9-.5,9.4-1,11.6-3.5,1.7-2,2.7-3.2,3.7-3.2s1.2.5,1.2,2-1.2,5.7-2,13.9c-.5,4.9-1,14.1-1,15.8s0,4.7-1.7,4.7-1.7-1-1.7-2.2c0-2.5,0-4.9-1-8.2-1-3.5-3.2-7.7-12.9-8.7-6.7-.7-31.2-1.2-35.4-1.2s-1.7.7-1.7,1.7v21.8c0,8.4-.2,37.1,0,42.3.7,17.1,4.5,20.3,28.7,20.3s17.3,0,23.7-2.7c6.4-2.7,9.4-7.7,11.1-17.8.5-2.7,1-3.7,2.2-3.7s1.5,2,1.5,3.7-2,18.8-3.2,24c-1.7,6.4-3.7,6.4-13.4,6.4-18.5,0-32.2-.5-41.8-.7-9.6-.5-15.6-.7-19.3-.7s-4.7,0-9.9.3c-4.9,0-10.6.5-14.3.5s-4-.5-4-2,.5-1.5,2-1.5c2.2,0,5.2-.5,7.4-1,4.9-1,6.2-6.4,7.2-13.6,1.2-10.4,1.2-29.9,1.2-53.7v-43.5Z"/>
      <path class="st1" d="M628.1,206.3c.5,20.3,3,26.7,9.6,28.7,4.7,1.2,10.1,1.5,12.4,1.5s2,.5,2,1.5c0,1.5-1.5,2-4.4,2-14.1,0-24-.7-26.2-.7s-12.6.7-23.7.7-4-.2-4-2,.7-1.5,2-1.5c2,0,6.4-.3,10.1-1.5,6.2-1.7,7.4-8.9,7.4-31.4l.2-141.7c0-9.6.7-12.4,2.7-12.4s6.2,5.4,8.7,7.9c3.7,4.2,40.6,44,78.7,84.8,24.5,26.2,51.4,56.4,59.4,64.6l-2.7-125.7c-.2-16.1-2-21.5-9.6-23.5-4.5-1-10.1-1.2-12.1-1.2s-2-.7-2-1.7c0-1.5,2-1.7,4.9-1.7,11.1,0,23,.7,25.7.7s10.9-.7,21-.7,4.5.2,4.5,1.7-1,1.7-2.7,1.7-3,0-5.9.7c-8.2,1.7-9.2,7.2-9.2,22l-.5,144.9c0,16.3-.5,17.6-2.2,17.6s-4.9-2.7-18.1-15.8c-2.7-2.5-38.3-38.8-64.6-67-28.7-30.9-56.6-62.1-64.6-71l3.2,118.5Z"/>
      <path class="st1" d="M853.7,216.7c-24-21.5-29.9-49.7-29.9-73.2s5.7-45.5,27.7-67.5c14.8-14.8,37.4-26.5,75.4-26.5s23.7.7,35.9,3c9.4,1.7,17.3,3.2,25.2,3.7,2.7.2,3.2,1.2,3.2,2.7s-.7,4.9-1.2,13.9c-.5,8.2-.5,21.8-.7,25.5-.2,3.7-.7,5.2-2.2,5.2s-2-1.7-2-5.2c0-9.6-4-19.8-10.4-25.2-8.7-7.4-27.7-14.1-49.5-14.1-32.9,0-48.2,9.6-56.9,18.1-18.1,17.3-22.3,39.3-22.3,64.6,0,47.2,36.4,90.5,89.3,90.5s33.1-2.2,43-12.4c5.2-5.4,8.4-16.3,9.2-20.8.5-2.7,1-3.7,2.5-3.7s1.7,1.7,1.7,3.7-3,23.2-5.4,31.7c-1.5,4.7-2,5.2-6.4,7.2-9.9,4-28.7,5.7-44.5,5.7-37.1,0-62.1-9.1-81.6-26.7"/>
      <path class="st1" d="M1071.9,168.3c0,23.7,0,43.3,1.2,53.7.7,7.2,2.2,12.6,9.6,13.6,3.5.5,8.9,1,11.1,1s2,.7,2,1.5c0,1.2-1.2,2-4,2-13.6,0-29.2-.7-30.4-.7s-16.8.7-24.2.7-4-.5-4-2,.5-1.5,2-1.5c2.2,0,5.2-.5,7.4-1,4.9-1,6.2-6.4,7.2-13.6,1.2-10.4,1.2-29.9,1.2-53.7v-43.5c0-38.6,0-45.5-.5-53.4-.5-8.4-3-12.6-8.4-13.8-2.7-.7-5.9-1-7.7-1s-2-.5-2-1.5c0-1.5,1.2-2,4-2,8.2,0,23.7.7,25,.7s16.8-.7,24.2-.7,4,.5,4,2-1,1.5-2,1.5c-1.7,0-3.2.2-6.2.7-6.7,1.2-8.7,5.4-9.1,14.1-.5,7.9-.5,14.8-.5,53.4v43.5Z"/>
      <path class="st1" d="M223,236.5c-2.5,0-6.2-.2-9.9-1.5-5.2-1.5-12.4-5.4-21.3-27.5-15.1-37.6-53.9-139.8-57.6-149.2-3-7.7-4-8.9-5.4-8.9s-2.5,1.5-5.4,9.6l-56.1,153.6c-4.5,12.4-9.4,21.8-20.8,23.2-2,.2-5.4.5-7.2.5s-2.2.5-2.2,1.5c0,1.5,1.5,2,4.7,2,11.6,0,25.2-.7,28-.7s13.4.7,19.3.7,3.7-.5,3.7-2-.7-1.5-2.5-1.5h-2.5c-4.2,0-9.4-2.2-9.4-7.2s1.2-10.4,3.5-16.6l14.8-43.8c.5-1.2,4-11.4,4.5-12.6l21.8-66.8c1.2-3.7,2.5-3.7,3.7,0l23.5,66.8c.2,1,4,11.1,4.5,12.1l23,60.8c1.5,4,0,6.2-1.5,6.7-1,.2-1.7.7-1.7,1.7,0,1.5,2.7,1.5,7.4,1.7,17.1.5,35.1.5,38.8.5s4.9-.5,4.9-2-1-1.5-2.5-1.5"/>
    </g>
  </g>
  <g id="A">
    <path class="st1" d="M1295.3,236.5c-2.5,0-6.2-.2-9.9-1.5-5.2-1.5-12.4-5.4-21.3-27.5-15.1-37.6-53.9-139.8-57.6-149.2-3-7.7-4-8.9-5.4-8.9s-2.5,1.5-5.4,9.6l-56.1,153.6c-4.5,12.4-9.4,21.8-20.8,23.2-2,.2-5.4.5-7.2.5s-2.2.5-2.2,1.5c0,1.5,1.5,2,4.7,2,11.6,0,25.2-.7,28-.7s13.4.7,19.3.7,3.7-.5,3.7-2-.7-1.5-2.5-1.5h-2.5c-4.2,0-9.4-2.2-9.4-7.2s1.2-10.4,3.5-16.6l14.8-43.8c.5-1.2,4-11.4,4.5-12.6l21.8-66.8c1.2-3.7,2.5-3.7,3.7,0l23.5,66.8c.2,1,4,11.1,4.5,12.1l23,60.8c1.5,4,0,6.2-1.5,6.7-1,.2-1.7.7-1.7,1.7,0,1.5,2.7,1.5,7.4,1.7,17.1.5,35.1.5,38.8.5s4.9-.5,4.9-2-1-1.5-2.5-1.5"/>
  </g>
  <g id="DOS">
    <g>
      <path class="st0" d="M1331.8,120.3c0-38.9,0-45.9-.5-53.8-.5-8.5-2.5-12.5-10.7-14.2-2-.5-6.2-.7-8.5-.7s-2-.5-2-1.5c0-1.5,1.2-2,4-2,11.2,0,26.9.8,28.2.8,3,0,18.7-.8,33.6-.8,24.7,0,70.3-2.2,100,28.4,12.5,13,24.2,33.7,24.2,63.3s-13,55.6-26.9,70.3c-10.7,11.2-33.2,28.7-75.5,28.7s-23.9-.8-34.7-1.5c-11-.7-19.4-1.5-20.7-1.5s-4.7,0-10,.2c-5,0-10.7.5-14.5.5s-4-.5-4-2,.5-1.5,2-1.5c2.2,0,5.2-.5,7.5-1,5-1,6.2-6.5,7.2-13.7,1.2-10.5,1.2-30.2,1.2-54.1v-43.9ZM1352.8,147.3c0,26.4.2,49.4.5,54.1.2,6.2.7,16.2,2.7,18.9,3.2,4.7,13,10,42.4,10s44.6-8.5,59.3-23.2c13-12.7,19.9-36.6,19.9-59.6s-13.7-52.1-23.9-62.8c-23.4-24.7-51.9-28.2-81.5-28.2s-14.2.7-16.2,1.7c-2.2,1-3,2.2-3,5-.2,8.5-.2,33.9-.2,53.1v30.9Z"/>
      <path class="st0" d="M1630.3,44.5c56.1,0,98,35.4,98,93.5s-39.4,102-99.5,102-96.7-53.1-96.7-98,29.4-97.5,98.2-97.5M1635.5,230.5c22.4,0,68.8-13,68.8-85.5s-36.4-92-75.8-92-72.8,27.4-72.8,82,34.9,95.5,79.8,95.5"/>
      <path class="st0" d="M1772.6,233.3c-3.5-1.7-3.7-2.7-3.7-9.5,0-12.5,1-22.4,1.2-26.4.2-2.7.8-4,2-4s1.7.8,1.7,2.7,0,5.7.8,9.2c3.7,18.4,20.2,25.4,36.9,25.4,23.9,0,35.7-17.2,35.7-33.2s-7.2-27.2-28.7-44.9l-11.2-9.2c-26.4-21.7-32.4-37.1-32.4-54.1,0-26.7,19.9-44.9,51.6-44.9s16.9,1,23.2,2.5c4.7,1,6.7,1.2,8.7,1.2s2.5.5,2.5,1.7-1,9.5-1,26.4-.5,5.7-1.7,5.7-1.7-1.2-2-3.2c-.2-3-1.7-9.7-3.2-12.5-1.5-2.7-8.2-13.2-31.2-13.2s-30.7,10.7-30.7,28.9,6.5,23.2,30.4,41.9l7,5.5c29.4,23.2,36.4,38.6,36.4,58.6s-4,29.2-21.2,41.4c-10.7,7.5-24.2,10.5-37.6,10.5s-23.2-1.7-33.4-6.7"/>
      <path class="st0" d="M1963,204.9c0,6.3-1.6,12.2-4.7,17.6-3.1,5.4-7.4,9.7-12.9,12.8-5.4,3.2-11.3,4.7-17.5,4.7s-12-1.6-17.5-4.7c-5.4-3.1-9.7-7.4-12.9-12.8-3.1-5.4-4.7-11.2-4.7-17.4s1.6-12.1,4.7-17.6c3.1-5.5,7.4-9.8,12.9-12.9,5.4-3.1,11.3-4.7,17.5-4.7s12.1,1.6,17.5,4.7c5.4,3.1,9.7,7.4,12.8,12.9,3.2,5.5,4.7,11.3,4.7,17.5M1958.1,205c0-5.4-1.4-10.4-4.1-15.1-2.7-4.7-6.4-8.4-11-11.1-4.6-2.7-9.6-4.1-15-4.1s-10.4,1.4-15.2,4.1c-4.7,2.7-8.4,6.4-11.1,11.1-2.7,4.7-4,9.8-4,15.2s1.3,10.4,4,15.1c2.7,4.7,6.4,8.4,11.1,11.1,4.7,2.7,9.8,4.1,15.1,4.1s10.3-1.4,15-4.1c4.7-2.7,8.4-6.4,11-11.1,2.7-4.7,4-9.7,4-15.2M1913.4,184.5h16.8c3.9,0,6.8.4,8.5,1.2,1.7.8,3.1,2.1,4.2,3.9,1.1,1.8,1.6,3.9,1.6,6.3s-.4,3.8-1.2,5.3c-.6,1.1-1.9,2.3-3.9,3.6,1.8.9,3,1.9,3.7,3.1.6,1.2.9,3.2.9,6v4.6c0,2.1.5,3.9,1.4,5.4l.7,1.1h-7.1c-.5-1.7-.8-3.7-1-6l-.3-5c-.1-1.8-.4-3.1-.9-3.8-.5-.8-1.1-1.3-2-1.6-.8-.3-2.5-.5-5.1-.5h-10.1v16.9h-6.4v-40.4ZM1919.8,190.3v12h9.9c3,0,5-.3,6.1-1,1.6-1,2.4-2.6,2.4-5s-.6-3.6-1.7-4.5c-1.1-1-3.3-1.4-6.4-1.4h-10.3Z"/>
    </g>
  </g>
</svg>