<?xml version="1.0" encoding="UTF-8"?>
<svg id="Layer_1" xmlns="http://www.w3.org/2000/svg" version="1.1" viewBox="0 0 2000 550">
  <!-- Generator: Adobe Illustrator 29.1.0, SVG Export Plug-In . SVG Version: 2.1.0 Build 142)  -->
  <defs>
    <style>
      .st0 {
        fill: #c23a41;
      }

      .st1 {
        fill: #282521;
      }
    </style>
  </defs>
  <path class="st1" d="M527.8,495.9h148.5L474.8,92.8h-206.9L53.1,495.9h148.5l32-63.6h263.8l30.4,63.6ZM264.2,371.2l104.5-208.2,99.5,208.2h-204Z"/>
  <path class="st1" d="M1085.9,259.6v.2h-139.2v66.3h139.2v37c0,22.7-18.5,41.2-41.2,41.2h-196c-22.7,0-41.2-18.5-41.2-41.2v-137.7c0-22.7,18.5-41.2,41.2-41.2h196c21,0,38.4,15.9,40.9,36.3h117.8c-5.2-71.4-56-127.8-139.7-127.8h-234.1c-83.1,0-140.1,63.1-140.1,140.1v122.8c0,77.1,63.1,140.2,140.1,140.2h234.1c77.1,0,140.2-63.1,140.2-140.2v-96.1h-118Z"/>
  <polygon class="st0" points="1462.6 54.1 1761.5 54.1 1612.1 300.6 1462.6 54.1"/>
  <polygon class="st1" points="1277.3 92.8 1449.7 92.8 1610.1 359.3 1773.2 92.8 1946.9 92.8 1946.9 495.8 1831.5 495.8 1831.5 245.3 1675.1 495.8 1546.4 495.8 1391.3 247.9 1391.3 495.8 1277.3 495.8 1277.3 92.8"/>
</svg>